<svg width="98" height="84" viewBox="0 0 98 84" fill="none" xmlns="http://www.w3.org/2000/svg">
<path d="M43.532 28.2105H30.3542L34.321 21.316H47.4558L43.532 28.2105ZM81.6677 28.2105H51.6062L55.5857 21.316H85.573L81.6677 28.2105Z" fill="white"/>
<path d="M47.1892 48.8951H30.1433L26.2136 42.0005H51.1189L47.1892 48.8951ZM69.8396 48.8951H55.9099L60.0994 42.0005H73.7615L69.8396 48.8951Z" fill="white"/>
<path d="M58.072 69.5796H43.3406L47.531 62.6841H61.9949L58.072 69.5796Z" fill="white"/>
<path d="M79.1511 32.6539H79.0789L50.2273 83.3687L42.8191 70.438L55.9099 48.8951H69.8396L73.7615 42.0005H60.0994L65.7791 32.6539H49.0408L51.6062 28.2105H81.6677L85.573 21.316H55.5857L56.2107 20.2339H86.1863L79.1511 32.6539ZM47.531 62.6841L43.3406 69.5796H58.072L61.9949 62.6841H47.531ZM97.4246 0.783743L90.5701 13.0982H52.1335L37.364 39.0474L52.8181 39.0191L51.1189 42.0005H26.2136L30.1433 48.8951H47.1892L46.1951 50.6392H31.1384L30.9519 50.3121V50.314L24.5437 39.0709L24.3269 38.6871L39.0535 13.0894H9.73999L2.64136 0.631399L97.4246 0.783743ZM30.3542 28.2105H43.532L47.4558 21.316H34.321L30.3542 28.2105Z" fill="white"/>
<path d="M41.313 28.2105H28.1353L32.1021 21.316H45.2368L41.313 28.2105ZM79.4487 28.2105H49.3872L53.3667 21.316H83.354L79.4487 28.2105Z" fill="white"/>
<path d="M44.9702 48.8951H27.9243L23.9946 42.0005H48.8999L44.9702 48.8951ZM67.6206 48.8951H53.6909L57.8804 42.0005H71.5425L67.6206 48.8951Z" fill="white"/>
<path d="M55.853 69.5796H41.1216L45.312 62.6841H59.7759L55.853 69.5796Z" fill="white"/>
<path d="M76.9321 32.6539H76.8599L48.0083 83.3687L40.6001 70.438L53.6909 48.8951H67.6206L71.5425 42.0005H57.8804L63.5601 32.6539H46.8218L49.3872 28.2105H79.4487L83.354 21.316H53.3667L53.9917 20.2339H83.9673L76.9321 32.6539ZM45.312 62.6841L41.1216 69.5796H55.853L59.7759 62.6841H45.312ZM95.2056 0.783743L88.3511 13.0982H49.9146L35.145 39.0474L50.5991 39.0191L48.8999 42.0005H23.9946L27.9243 48.8951H44.9702L43.9761 50.6392H28.9194L28.7329 50.3121V50.314L22.3247 39.0709L22.1079 38.6871L36.8345 13.0894H7.521L0.422363 0.631399L95.2056 0.783743ZM28.1353 28.2105H41.313L45.2368 21.316H32.1021L28.1353 28.2105Z" fill="white"/>
<path d="M43.532 28.2104H30.3542L34.321 21.3159H47.4558L43.532 28.2104ZM81.6677 28.2104H51.6062L55.5857 21.3159H85.573L81.6677 28.2104Z" fill="#B34FFF" style="mix-blend-mode:multiply"/>
<path d="M47.1892 48.895H30.1433L26.2136 42.0004H51.1189L47.1892 48.895ZM69.8396 48.895H55.9099L60.0994 42.0004H73.7615L69.8396 48.895Z" fill="#B34FFF" style="mix-blend-mode:multiply"/>
<path d="M58.072 69.5795H43.3406L47.531 62.684H61.9949L58.072 69.5795Z" fill="#B34FFF" style="mix-blend-mode:multiply"/>
<path d="M79.1511 32.6537H79.0789L50.2273 83.3686L42.8191 70.4379L55.9099 48.895H69.8396L73.7615 42.0004H60.0994L65.7791 32.6537H49.0408L51.6062 28.2104H81.6677L85.573 21.3159H55.5857L56.2107 20.2338H86.1863L79.1511 32.6537ZM47.531 62.684L43.3406 69.5795H58.072L61.9949 62.684H47.531ZM90.5701 13.0981H52.1335L37.364 39.0473L52.8181 39.019L51.1189 42.0004H26.2136L30.1433 48.895H47.1892L46.1951 50.6391H31.1384L30.9519 50.312V50.3139L24.5437 39.0707L24.3269 38.687L39.0535 13.0893H9.73999L2.64136 0.631287H97.5779L90.5701 13.0981ZM30.3542 28.2104H43.532L47.4558 21.3159H34.321L30.3542 28.2104Z" fill="#B34FFF" style="mix-blend-mode:multiply"/>
<path d="M41.313 28.2104H28.1353L32.1021 21.3159H45.2368L41.313 28.2104ZM79.4487 28.2104H49.3872L53.3667 21.3159H83.354L79.4487 28.2104Z" fill="#81EDFF" style="mix-blend-mode:multiply"/>
<path d="M44.9702 48.895H27.9243L23.9946 42.0004H48.8999L44.9702 48.895ZM67.6206 48.895H53.6909L57.8804 42.0004H71.5425L67.6206 48.895Z" fill="#81EDFF" style="mix-blend-mode:multiply"/>
<path d="M55.853 69.5795H41.1216L45.312 62.684H59.7759L55.853 69.5795Z" fill="#81EDFF" style="mix-blend-mode:multiply"/>
<path d="M76.9321 32.6537H76.8599L48.0083 83.3686L40.6001 70.4379L53.6909 48.895H67.6206L71.5425 42.0004H57.8804L63.5601 32.6537H46.8218L49.3872 28.2104H79.4487L83.354 21.3159H53.3667L53.9917 20.2338H83.9673L76.9321 32.6537ZM45.312 62.684L41.1216 69.5795H55.853L59.7759 62.684H45.312ZM88.3511 13.0981H49.9146L35.145 39.0473L50.5991 39.019L48.8999 42.0004H23.9946L27.9243 48.895H44.9702L43.9761 50.6391H28.9194L28.7329 50.312V50.3139L22.3247 39.0707L22.1079 38.687L36.8345 13.0893H7.521L0.422363 0.631287H95.4702L88.3511 13.0981ZM28.1353 28.2104H41.313L45.2368 21.3159H32.1021L28.1353 28.2104Z" fill="#81EDFF" style="mix-blend-mode:multiply"/>
</svg>
