<svg width="85" height="85" viewBox="0 0 85 85" fill="none" xmlns="http://www.w3.org/2000/svg">
<path d="M82.4999 82.5C82.4999 60.4086 64.5913 42.5 42.4999 42.5L2.4999 42.5C2.4999 64.5914 20.4085 82.5 42.4999 82.5L82.4999 82.5Z" fill="#5050FA" fill-opacity="0.6"/>
<path d="M42.5 42.5C42.5 20.4086 60.4086 2.5 82.5 2.5C82.5 24.5914 64.5914 42.5 42.5 42.5Z" fill="#5050FA" fill-opacity="0.25"/>
<path d="M42.4999 82.5C64.5913 82.5 82.4999 64.5914 82.4999 42.5L82.4999 2.50003C60.4085 2.50003 42.4999 20.4086 42.4999 42.5L42.4999 82.5Z" fill="#5050FA" fill-opacity="0.15"/>
<path d="M42.5 82.5C20.4086 82.5 2.5 64.5914 2.49999 42.5L2.49999 2.50003C24.5914 2.50003 42.5 20.4086 42.5 42.5L42.5 82.5Z" fill="#5050FA" fill-opacity="0.45"/>
</svg>
